PathFileType	4	(X/Y/Z)	C:\Users\dbl\Desktop\20210112(1)\20210112\bx_y_10_1801.trc
DataRate	CameraRate	NumFrames	NumMarkers	Units	OrigDataRate	OrigDataStartFrame	OrigNumFrames
50.00	50.00	       5	43	mm	50.00	59	       468
Frame#	Time	Top.Head			R.Acromium			L.Acromium			Sternum			R.ASIS			L.ASIS			V.Sacral			R.Thigh.Upper			R.Thigh.Front			R.Thigh.Rear			R.Knee.Lat			R.Knee.Med			R.Shank.Upper			R.Shank.Front			R.Shank.Rear			R.Ankle.Lat			R.Midfoot.Lat			R.Toe.Lat			R.Toe.Tip			R.Toe.Med			R.Ankle.Med			R.Midfoot.Sup			R.Heel			L.Thigh.Upper			L.Thigh.Front			L.Thigh.Rear			L.Knee.Lat			L.Knee.Med			L.Shank.Upper			L.Shank.Front			L.Shank.Rear			L.Ankle.Lat			L.Midfoot.Lat			L.Toe.Lat			L.Toe.Tip			L.Toe.Med			L.Ankle.Med			L.Midfoot.Sup			L.Heel			origin1 front left			origin2 front right			origin 3 back right			origin 4 back leftt			
		X1	Y1	Z1	X2	Y2	Z2	X3	Y3	Z3	X4	Y4	Z4	X5	Y5	Z5	X6	Y6	Z6	X7	Y7	Z7	X8	Y8	Z8	X9	Y9	Z9	X10	Y10	Z10	X11	Y11	Z11	X12	Y12	Z12	X13	Y13	Z13	X14	Y14	Z14	X15	Y15	Z15	X16	Y16	Z16	X17	Y17	Z17	X18	Y18	Z18	X19	Y19	Z19	X20	Y20	Z20	X21	Y21	Z21	X22	Y22	Z22	X23	Y23	Z23	X24	Y24	Z24	X25	Y25	Z25	X26	Y26	Z26	X27	Y27	Z27	X28	Y28	Z28	X29	Y29	Z29	X30	Y30	Z30	X31	Y31	Z31	X32	Y32	Z32	X33	Y33	Z33	X34	Y34	Z34	X35	Y35	Z35	X36	Y36	Z36	X37	Y37	Z37	X38	Y38	Z38	X39	Y39	Z39	X40	Y40	Z40	X41	Y41	Z41	X42	Y42	Z42	X43	Y43	Z43	

59	1.160	-323.44827	80.43300	1566.05627	-533.61316	-81.49469	1350.63757	-533.66309	261.74408	1364.52710	-550.35876	88.13371	1231.80859	-775.35217	-2.99496	959.66901	-761.26367	215.84705	972.24731	-964.75928	102.85582	1003.32678	-781.58093	-74.11823	826.54077	-684.42377	-19.26966	806.07452	-728.92377	-59.37794	680.48004	-665.54260	-46.46560	603.71210	-625.39996	60.81715	569.71674	-659.49548	-45.22348	553.89392	-611.03558	-3.28762	503.85696	-717.27643	-46.75540	482.53763	-765.09033	-10.13131	208.31898	-665.05450	-70.90655	160.35374	-623.46436	-80.90154	156.82181	-562.08801	-40.64273	164.12137	-604.47235	16.80397	169.44478	-711.91876	72.02184	214.27122	-676.27344	51.89564	159.77693	-795.43927	51.66831	175.13571	-758.13696	291.86984	834.92041	-677.04108	223.29155	814.22205	-720.50262	291.68671	708.95300	-670.70868	266.36209	609.33575	-606.99811	163.61281	568.37244	-647.91321	264.75446	559.18475	-594.43811	222.59459	513.93634	-696.53149	268.77621	492.26984	-765.65546	225.53430	205.03349	-666.14844	299.01730	160.50424	-628.66821	306.46512	161.35222	-560.75232	261.87222	165.47839	-594.97766	222.93675	174.13785	-703.63959	154.23820	212.68515	-675.01520	172.76910	157.02829	-794.83429	172.88441	185.50346	-528.43829	304.30359	146.83228	-517.69049	-72.28883	142.84781	-876.03278	-78.65398	141.43109	-882.52002	296.11255	144.62019	
60	1.180	-318.98462	80.74744	1551.58411	-529.12817	-81.04067	1336.86230	-529.28082	261.91196	1351.51257	-548.65082	87.82545	1222.63452	-778.70117	-2.54889	952.50122	-765.34497	216.39140	964.86206	-968.16077	103.03621	997.57373	-783.43121	-74.03660	821.84485	-685.64276	-19.90738	803.70953	-727.59467	-60.24923	677.59424	-662.38318	-47.61353	602.00470	-621.68756	59.92656	568.85669	-655.80194	-46.32115	552.66345	-607.67255	-4.24300	502.48666	-713.99237	-47.43688	481.76233	-764.75580	-10.06359	208.30000	-664.98322	-70.84480	160.46481	-623.41589	-80.80874	156.78006	-561.97644	-40.56816	164.05806	-604.46826	16.89373	169.37801	-711.59552	72.08835	213.98669	-676.29095	51.95556	159.71820	-795.32178	51.81806	175.21016	-759.97888	292.43875	830.62042	-678.85583	224.33173	811.76337	-720.47974	292.61832	705.74323	-668.32935	267.08405	607.33276	-603.89069	164.47517	567.45300	-644.74365	265.72580	557.90149	-591.28131	223.42062	512.74457	-693.72180	269.46753	491.43237	-765.42072	225.48375	205.04501	-666.16302	298.92215	160.57997	-628.66541	306.38788	161.39513	-560.66595	261.80148	165.46397	-594.87988	222.84727	174.03491	-703.23199	154.17220	212.52831	-674.96814	172.77734	156.77609	-794.68024	172.79509	185.52895	-528.43524	304.30136	146.80287	-517.69647	-72.28783	142.82468	-876.01520	-78.72064	141.37048	-882.55347	296.14798	144.63507	
61	1.200	-314.70544	80.96422	1536.95728	-524.60895	-80.53070	1322.81055	-524.91559	262.10468	1338.37805	-547.02167	87.54147	1213.67126	-781.89996	-1.95526	945.10046	-769.32922	216.85460	957.32147	-971.40771	103.19801	991.56793	-785.04651	-73.88734	816.96356	-686.77869	-20.33791	801.20441	-726.18805	-61.06139	674.63812	-659.17792	-48.71955	600.22333	-617.90143	59.24601	568.06055	-652.08081	-47.39546	551.33893	-604.27496	-5.15634	501.09186	-710.66058	-48.10978	480.92902	-764.39111	-9.97112	208.27716	-664.92285	-70.76627	160.55978	-623.33521	-80.71465	156.78665	-561.81934	-40.50916	163.98827	-604.45612	16.99248	169.30574	-711.22546	72.24265	213.70059	-676.28888	52.06431	159.67256	-795.17358	51.97374	175.27840	-761.70447	293.06644	826.19800	-680.60645	225.49329	809.20844	-720.36206	293.69992	702.55054	-666.14868	267.85864	605.16266	-600.67200	165.36334	566.56128	-641.60876	266.82370	556.52283	-588.14783	224.42155	511.55188	-690.92969	270.28281	490.53259	-765.19592	225.47153	205.03868	-666.17249	298.83734	160.63612	-628.67023	306.33411	161.44725	-560.58771	261.72772	165.44119	-594.79767	222.77313	173.92773	-702.86768	154.13374	212.34525	-674.95337	172.82834	156.49580	-794.50641	172.71399	185.58704	-528.41986	304.30948	146.76309	-517.70184	-72.26937	142.81451	-875.99854	-78.78326	141.31224	-882.58539	296.18372	144.65112	
62	1.220	-310.61707	81.08108	1522.19897	-520.01465	-79.96684	1308.46118	-520.47089	262.31967	1325.09253	-545.46887	87.28243	1204.90881	-784.98541	-1.21897	937.49994	-773.21008	217.24821	949.73114	-974.50122	103.33821	985.35510	-786.47058	-73.69690	811.94745	-687.86957	-20.60433	798.59052	-724.82428	-61.79075	671.59283	-656.00775	-49.77252	598.39941	-614.05212	58.79047	567.39178	-648.40479	-48.40703	549.92273	-600.89734	-5.99658	499.67996	-707.36597	-48.77375	480.06812	-763.99750	-9.84940	208.26720	-664.89069	-70.66448	160.61302	-623.23096	-80.63839	156.84584	-561.63196	-40.46053	163.92059	-604.42651	17.08853	169.21202	-710.82062	72.47137	213.44189	-676.23975	52.22355	159.62056	-794.99408	52.13181	175.34093	-763.37891	293.70999	821.64313	-682.29120	226.72482	806.56989	-720.16321	294.90033	699.41693	-664.14917	268.65289	602.84314	-597.32855	166.22476	565.71582	-638.51843	268.01605	555.08960	-585.05682	225.55568	510.34882	-688.16364	271.19208	489.57538	-764.97821	225.48824	205.01421	-666.17053	298.76083	160.68021	-628.69379	306.30444	161.49939	-560.52435	261.65540	165.41525	-594.72821	222.71152	173.82529	-702.56744	154.11855	212.13701	-674.96350	172.89796	156.23657	-794.33221	172.63638	185.68912	-528.39740	304.32587	146.72032	-517.70361	-72.24398	142.81143	-875.98743	-78.82327	141.27498	-882.60785	296.21091	144.66455	
63	1.240	-306.71909	81.10254	1507.32227	-515.31354	-79.34311	1293.74976	-515.86053	262.56097	1311.58276	-543.98474	87.04640	1196.34009	-787.98602	-0.37111	929.76904	-776.98560	217.59491	942.19946	-977.45721	103.47954	978.98834	-787.77234	-73.47761	806.84308	-688.95837	-20.76956	795.90497	-723.61865	-62.43137	668.46033	-652.94800	-50.75880	596.55469	-610.17395	58.49823	566.86981	-644.84003	-49.32021	548.44373	-597.60309	-6.75813	498.23276	-704.18481	-49.41916	479.21179	-763.58850	-9.69725	208.28787	-664.89545	-70.53654	160.61472	-623.11694	-80.59028	156.94670	-561.43646	-40.40891	163.85970	-604.37189	17.18424	169.08636	-710.40295	72.74232	213.22156	-676.12982	52.42034	159.54016	-794.78723	52.29240	175.40132	-765.03430	294.33191	816.93481	-683.90717	227.96240	803.84747	-719.89008	296.17236	696.35278	-662.24530	269.46185	600.44513	-593.87866	167.02748	564.91724	-635.46667	269.25333	553.64478	-582.01025	226.73894	509.11237	-685.42499	272.14352	488.56815	-764.76355	225.51466	204.97542	-666.15552	298.68939	160.72084	-628.74139	306.29385	161.54538	-560.47443	261.58456	165.39113	-594.66425	222.65712	173.73552	-702.32916	154.11804	211.92171	-674.98633	172.95885	156.03647	-794.17786	172.55753	185.83203	-528.37640	304.34705	146.68629	-517.70221	-72.22057	142.80359	-875.98486	-78.82755	141.27243	-882.61871	296.22272	144.66945	
